<?xml version="1.0" encoding="UTF-8"?>
<svg xmlns="http://www.w3.org/2000/svg" viewBox="0 0 291.31 229.46">
  <defs>
    <style>
      .cls-1 {
        fill: #fff;
      }

      .cls-1, .cls-2, .cls-3 {
        stroke: #1d1d1b;
        stroke-miterlimit: 10;
        stroke-width: 2px;
      }

      .cls-2 {
        fill: #fdd28e;
      }

      .cls-3 {
        fill: none;
      }

      .cls-4 {
        fill: #1d1d1b;
        stroke-width: 0px;
      }
    </style>
  </defs>
  <g id="Capa_4" data-name="Capa 4">
    <ellipse class="cls-2" cx="139.01" cy="112.47" rx="107.7" ry="100.95"/>
    <circle class="cls-1" cx="93.29" cy="100.9" r="28.76"/>
    <circle class="cls-1" cx="173.11" cy="106.13" r="29.82"/>
    <circle class="cls-4" cx="100.86" cy="106.13" r="7.57"/>
    <circle class="cls-4" cx="160.91" cy="112.47" r="7.57"/>
    <path class="cls-3" d="M119.56,138.39c-2.26,3.21-1.46,7.03,1.9,9.43,3.92,2.8,9.64,2.49,13.28,1.35,6.5-2.04,7.54-7.12,7.59-7.41"/>
    <path class="cls-3" d="M78.76,163.37c3.01,2.87,29.09,26.91,65.47,20.88,26.92-4.46,42.51-22.58,46.5-27.52"/>
  </g>
  <g id="Capa_5" data-name="Capa 5">
    <ellipse class="cls-4" cx="252.81" cy="36.22" rx="38.5" ry="35.58"/>
    <path class="cls-4" d="M37.96,65.63c10.7,12.65,60.78-5.99,91.09-21.82,20.9-10.92,30.27-19.4,40.8-15.18,14.39,5.77,6.61,25.51,25.62,42.7,15.42,13.94,31.39,10.76,43.65,29.42,4.37,6.64,5.63,12.05,7.59,11.73,4.06-.68,7.34-25.45,0-46.84-11.38-33.17-44.88-48.24-57.88-54.09C161.22-.87,136.87-.24,126.2.16c-18.15.68-60.71,2.27-80.66,32.26-5.5,8.27-13.94,25.71-7.59,33.21Z"/>
    <path class="cls-2" d="M23.72,104.54c-5.19-1.6-14.05,3.41-15.18,11.39-.77,5.43,2.28,10.64,6.64,13.28,3.34,2.03,8.87,3.41,12.34.95,6.79-4.82,4.01-23.21-3.8-25.62Z"/>
    <path class="cls-2" d="M244.29,133.83c3.4-1.89,8.97.46,11.91,3.92,4.38,5.15,3.23,13.11,0,18.03-.92,1.4-4.42,6.73-10.44,6.64-4.08-.06-8.46-2.61-9.64-6.25-.89-2.73.76-3.85,3.95-12.73,2.5-6.95,2.32-8.55,4.22-9.61Z"/>
    <path class="cls-2" d="M116.27,211.16c-5.29,3.06-6.05,12.28-1.46,15.79,3.3,2.52,9.13,1.9,12.34-1.9,2.87-3.4,3.18-8.83-.01-12.24-2.91-3.11-7.7-3.47-10.87-1.65Z"/>
  </g>
</svg>