<?xml version="1.0" encoding="utf-8"?>
<!-- Generator: Adobe Illustrator 28.2.0, SVG Export Plug-In . SVG Version: 6.00 Build 0)  -->
<svg version="1.1" xmlns="http://www.w3.org/2000/svg" xmlns:xlink="http://www.w3.org/1999/xlink" x="0px" y="0px"
	 viewBox="0 0 792 612" style="enable-background:new 0 0 792 612;" xml:space="preserve">
<style type="text/css">
	.st0{fill:#FDD28E;stroke:#000000;stroke-width:2;stroke-miterlimit:10;}
	.st1{fill:#FFFFFF;stroke:#000000;stroke-width:2;stroke-miterlimit:10;}
	.st2{fill:none;stroke:#000000;stroke-width:2;stroke-miterlimit:10;}
	.st3{fill:none;stroke:#000000;stroke-miterlimit:10;}
</style>
<g id="Capa_1">
</g>
<g id="Capa_4">
	<ellipse class="st0" cx="419.44" cy="273.32" rx="107.7" ry="100.95"/>
	<circle class="st1" cx="373.72" cy="261.74" r="28.76"/>
	<circle class="st1" cx="453.54" cy="266.98" r="29.82"/>
	<circle cx="381.29" cy="266.98" r="7.57"/>
	<circle cx="441.34" cy="273.32" r="7.57"/>
	<path class="st2" d="M399.99,299.24c-2.26,3.21-1.46,7.03,1.9,9.43c3.92,2.8,9.64,2.49,13.28,1.35c6.5-2.04,7.54-7.12,7.59-7.41"/>
	<path class="st2" d="M359.19,324.22c3.01,2.87,29.09,26.91,65.47,20.88c26.92-4.46,42.51-22.58,46.5-27.52"/>
	<path class="st3" d="M289.92,197.07"/>
	<path class="st3" d="M424.66,182.83"/>
	<path class="st3" d="M422.77,186.63"/>
</g>
<g id="Capa_5">
	<path class="st3" d="M280.43,203.71"/>
	<ellipse cx="533.24" cy="197.07" rx="38.5" ry="35.58"/>
	<path d="M318.39,226.48c10.7,12.65,60.78-5.99,91.09-21.82c20.9-10.92,30.27-19.4,40.8-15.18c14.39,5.77,6.61,25.51,25.62,42.7
		c15.42,13.94,31.39,10.76,43.65,29.42c4.37,6.64,5.63,12.05,7.59,11.73c4.06-0.68,7.34-25.45,0-46.84
		c-11.38-33.17-44.88-48.24-57.88-54.09c-27.61-12.42-51.96-11.78-62.63-11.39c-18.15,0.68-60.71,2.27-80.66,32.26
		C320.48,201.55,312.04,218.98,318.39,226.48z"/>
	<path class="st0" d="M304.15,265.39c-5.19-1.6-14.05,3.41-15.18,11.39c-0.77,5.43,2.28,10.64,6.64,13.28
		c3.34,2.03,8.87,3.41,12.34,0.95C314.74,286.19,311.96,267.79,304.15,265.39z"/>
	<path class="st0" d="M524.72,294.68c3.4-1.89,8.97,0.46,11.91,3.92c4.38,5.15,3.23,13.11,0,18.03c-0.92,1.4-4.42,6.73-10.44,6.64
		c-4.08-0.06-8.46-2.61-9.64-6.25c-0.89-2.73,0.76-3.85,3.95-12.73C523,297.34,522.82,295.74,524.72,294.68z"/>
	<path class="st0" d="M396.71,372.01c-5.29,3.06-6.05,12.28-1.46,15.79c3.3,2.52,9.13,1.9,12.34-1.9c2.87-3.4,3.18-8.83-0.01-12.24
		C404.67,370.55,399.87,370.18,396.71,372.01z"/>
</g>
</svg>
